<svg width="18" height="18" viewBox="0 0 18 18" fill="none" xmlns="http://www.w3.org/2000/svg">
<path fill-rule="evenodd" clip-rule="evenodd" d="M9 1.17C13.3244 1.17 16.83 4.67561 16.83 9C16.83 13.3244 13.3244 16.83 9 16.83V18C13.9706 18 18 13.9706 18 9C18 4.02944 13.9706 0 9 0C5.64428 0 2.71752 1.83656 1.17 4.55937C0.936352 4.97046 0.734144 5.40177 0.566648 5.85L1.72363 6.10242C1.88368 5.70084 2.07602 5.31564 2.29743 4.95C3.66943 2.68426 6.15788 1.17 9 1.17Z" fill="#0075FF"/>
<path d="M9 16.83V18C6.26811 18 3.8205 16.7828 2.16993 14.8611L3 14.0311C4.43633 15.7422 6.59113 16.83 9 16.83Z" fill="#0075FF"/>
<path fill-rule="evenodd" clip-rule="evenodd" d="M1.17005 5.13H5.13005H6.30005V6.3H4.86374e-05V0H1.17005V1.17V5.13Z" fill="#0075FF"/>
</svg>
